<svg width="83" height="28" viewBox="0 0 83 28" fill="none" xmlns="http://www.w3.org/2000/svg">
<path d="M26.3769 2.17432C20.8744 2.17432 17.9338 6.40144 17.9338 11.6627C17.9338 16.3109 20.8744 20.5008 25.9984 20.5008C31.4958 20.5008 34.4363 16.3109 34.4363 11.0497C34.4363 6.40144 31.4958 2.17432 26.3769 2.17432ZM26.3769 16.6041C23.5608 16.6041 22.3317 14.5252 22.3317 11.0497C22.3317 8.15519 23.5608 6.07628 25.9984 6.07628C28.7782 6.07628 30.0436 8.15519 30.0436 11.6627C30.0436 14.5252 28.8404 16.6041 26.3769 16.6041Z" fill="#40211E"/>
<path d="M66.3731 2.24353C61.8818 2.24353 60.1755 4.57832 60.1755 6.50798V7.41416C60.1759 7.45998 60.1881 7.50487 60.2111 7.54414C60.2341 7.58341 60.2669 7.61561 60.3061 7.6374C60.3453 7.65919 60.3895 7.66975 60.434 7.66798C60.4786 7.66622 60.5218 7.6522 60.5593 7.62738C62.0954 6.55989 63.8925 5.95774 65.7455 5.88963C68.2764 5.88963 69.4122 6.64124 69.4122 9.08796V9.31717H67.9238C61.664 9.31717 59.4547 11.6893 59.4547 14.8076C59.4547 18.006 62.2345 20.3621 66.2797 20.3621H67.1354C70.9318 20.3621 73.5871 17.7981 73.5871 14.0933V10.0634C73.5819 4.06125 70.1642 2.24353 66.3731 2.24353ZM69.4381 14.168C69.4381 15.9537 68.5513 16.8652 66.7206 16.8652C64.8898 16.8652 63.78 16.0497 63.78 14.685C63.78 13.3204 64.6979 12.4782 67.9289 12.4782H69.4485L69.4381 14.168Z" fill="#40211E"/>
<path d="M17.7781 4.61555C17.7781 6.46525 14.8064 14.4611 14.0129 16.3428C10.8545 24.0134 9.17938 25.8258 6.10913 25.8258C4.52733 25.8258 3.13742 24.7597 3.13742 23.1286V22.2863L5.54384 22.1211C7.0997 22.0251 7.61831 21.3748 8.54665 18.9227C6.30101 15.4419 3.07518 6.73711 2.5047 2.60594H4.77627C5.35636 2.59705 5.92112 2.79755 6.37219 3.17255C6.82327 3.54755 7.1321 4.07328 7.24492 4.6582C7.90502 8.18467 9.05425 11.5955 10.6574 14.7862C12.0474 11.508 13.598 6.20939 13.9766 2.63259H15.8126C17.1454 2.56329 17.7781 3.18163 17.7781 4.61555Z" fill="#40211E"/>
<path d="M59.2576 4.35447C59.2576 5.03678 58.5626 8.08585 57.2972 11.6946C56.3685 14.4748 55.1732 17.1533 53.7291 19.6905C53.6147 19.8783 53.4556 20.0332 53.2669 20.1404C53.0781 20.2477 52.866 20.3038 52.6503 20.3035C51.9979 20.2815 51.3774 20.0074 50.913 19.5359C50.4407 19.0816 50.0447 18.5503 49.7409 17.9634C48.5838 15.7435 47.6972 13.3857 47.1011 10.943C47.0337 10.6552 46.9714 10.378 46.9247 10.1008C46.2058 13.1183 45.1476 16.0395 43.7715 18.8056C43.7145 18.9175 43.6574 19.0242 43.5952 19.1308C43.533 19.2374 43.4033 19.4719 43.3151 19.6265C43.2995 19.6465 43.2857 19.6679 43.2737 19.6905C43.1642 19.873 43.0118 20.0243 42.8305 20.1305C42.6493 20.2367 42.445 20.2943 42.2364 20.2982H42.1794C41.5269 20.2762 40.9064 20.0021 40.442 19.5306C40.0855 19.1944 39.7765 18.8086 39.524 18.3845C39.5218 18.3757 39.5218 18.3666 39.524 18.3578C39.4307 18.2246 39.3529 18.086 39.2803 17.958C38.0634 15.7361 37.0561 13.3995 36.2723 10.9803C35.5006 8.57511 34.9281 6.10718 34.5608 3.60286C34.5037 3.25638 34.4571 2.90989 34.4104 2.53675H36.6871C37.2781 2.53224 37.8513 2.74445 38.3038 3.13525C38.7562 3.52605 39.0583 4.06984 39.1558 4.66897C39.6518 7.91629 40.5494 11.0852 41.8267 14.0987L41.8682 14.1947C43.424 10.7191 44.2694 6.94512 45.094 3.24039H46.4839C46.9145 3.21519 47.3451 3.28814 47.7449 3.45402C48.1448 3.61989 48.5041 3.87459 48.797 4.19988C49.1449 4.63826 49.3819 5.15835 49.4867 5.71376C50.1039 8.63468 51.0273 11.4783 52.2406 14.1947C53.8484 10.5219 54.7663 6.46004 55.4302 2.49411H57.2038C58.4019 2.46746 59.2576 3.02184 59.2576 4.35447Z" fill="#40211E"/>
<path d="M77.7517 14.5253C77.2145 14.5306 76.6908 14.6994 76.2469 15.0105C75.803 15.3215 75.4587 15.7608 75.2577 16.2729C75.0566 16.785 75.0077 17.3468 75.1171 17.8875C75.2266 18.4281 75.4895 18.9232 75.8726 19.3103C76.2558 19.6974 76.742 19.9591 77.2697 20.0623C77.7975 20.1656 78.3432 20.1057 78.8379 19.8902C79.3326 19.6748 79.7541 19.3135 80.0491 18.8519C80.344 18.3904 80.4993 17.8494 80.4952 17.2972C80.4843 16.5572 80.1903 15.8514 79.6768 15.3326C79.1633 14.8138 78.4717 14.5238 77.7517 14.5253Z" fill="#EF4723"/>
</svg>
