<svg width="42" height="43" viewBox="0 0 42 43" fill="none" xmlns="http://www.w3.org/2000/svg">
<path d="M33.25 36.8535V8.85352C33.25 6.92052 31.683 5.35352 29.75 5.35352H12.25C10.317 5.35352 8.75002 6.92052 8.75002 8.85352V36.8535M33.25 36.8535L36.75 36.8535M33.25 36.8535H24.5M8.75002 36.8535L5.25002 36.8535M8.75002 36.8535H17.5M15.75 12.3535H17.5M15.75 19.3535H17.5M24.5 12.3535H26.25M24.5 19.3535H26.25M17.5 36.8535V28.1035C17.5 27.137 18.2835 26.3535 19.25 26.3535H22.75C23.7165 26.3535 24.5 27.137 24.5 28.1035V36.8535M17.5 36.8535H24.5" stroke="#1D0F0D" stroke-width="3.22159" stroke-linecap="round" stroke-linejoin="round"/>
</svg>
