<svg width="42" height="43" viewBox="0 0 42 43" fill="none" xmlns="http://www.w3.org/2000/svg">
<path d="M23.625 6.53842L22.4173 7.60434C22.4394 7.62941 22.4623 7.65378 22.486 7.67742L23.625 6.53842ZM35.5651 23.7285L34.4992 22.5208C34.4741 22.543 34.4497 22.5659 34.4261 22.5895L35.5651 23.7285ZM35.875 18.7884L37.0827 17.7225C37.0605 17.6974 37.0376 17.6731 37.014 17.6494L35.875 18.7884ZM18.6849 35.9785L17.5459 37.1175C17.5695 37.1412 17.5939 37.1641 17.619 37.1862L18.6849 35.9785ZM23.3151 35.9785L24.381 37.1862C24.4061 37.1641 24.4304 37.1412 24.4541 37.1175L23.3151 35.9785ZM6.43489 23.7285L7.57389 22.5895L7.53842 22.554L7.50081 22.5208L6.43489 23.7285ZM12.25 10.7427C11.3604 10.7427 10.6392 11.4639 10.6392 12.3535C10.6392 13.2431 11.3604 13.9643 12.25 13.9643V10.7427ZM12.2675 13.9643C13.1571 13.9643 13.8783 13.2431 13.8783 12.3535C13.8783 11.4639 13.1571 10.7427 12.2675 10.7427V13.9643ZM6.86078 12.3535C6.86078 9.37714 9.27361 6.96431 12.25 6.96431V3.74272C7.49437 3.74272 3.63919 7.5979 3.63919 12.3535H6.86078ZM6.86078 21.1035V12.3535H3.63919V21.1035H6.86078ZM12.25 6.96431H21V3.74272H12.25V6.96431ZM21 6.96431C21.564 6.96431 22.0688 7.20946 22.4173 7.60434L24.8327 5.4725C23.8985 4.41414 22.5267 3.74272 21 3.74272V6.96431ZM35.1392 21.1035C35.1392 21.6675 34.894 22.1723 34.4992 22.5208L36.631 24.9362C37.6894 24.0021 38.3608 22.6302 38.3608 21.1035H35.1392ZM34.6673 19.8543C34.9621 20.1883 35.1392 20.6233 35.1392 21.1035H38.3608C38.3608 19.8085 37.877 18.6225 37.0827 17.7225L34.6673 19.8543ZM21 35.2427C20.5198 35.2427 20.0848 35.0656 19.7508 34.7708L17.619 37.1862C18.5189 37.9805 19.7049 38.4643 21 38.4643V35.2427ZM22.2492 34.7708C21.9152 35.0656 21.4802 35.2427 21 35.2427V38.4643C22.295 38.4643 23.481 37.9805 24.381 37.1862L22.2492 34.7708ZM7.50081 22.5208C7.10593 22.1723 6.86078 21.6675 6.86078 21.1035H3.63919C3.63919 22.6302 4.31061 24.0021 5.36897 24.9362L7.50081 22.5208ZM22.486 7.67742L34.736 19.9274L37.014 17.6494L24.764 5.39941L22.486 7.67742ZM19.8239 34.8395L7.57389 22.5895L5.29588 24.8675L17.5459 37.1175L19.8239 34.8395ZM34.4261 22.5895L22.1761 34.8395L24.4541 37.1175L36.7041 24.8675L34.4261 22.5895ZM12.25 13.9643H12.2675V10.7427H12.25V13.9643Z" fill="#1D0F0D"/>
</svg>
